<svg width="256" height="256" viewBox="0 0 256 256" fill="none" xmlns="http://www.w3.org/2000/svg">
<g clip-path="url(#clip0_1_2)">
<path d="M20.001 81.931L56.6855 119.746V256.799H20V81.931H20.001Z" fill="#EBEBEB"/>
<rect x="20" width="140.628" height="36.6855" fill="#15B1C3"/>
<path d="M160.017 0C202.227 2.98938e-05 236.445 34.2178 236.445 76.4277C236.445 118.638 202.227 152.856 160.017 152.856C159.844 152.856 159.671 152.853 159.498 152.852L125.101 117.394H160.628C182.915 117.394 200.982 99.3268 200.983 77.04C200.983 54.7531 182.915 36.6855 160.628 36.6855H94.7228C108.141 14.6871 132.363 0 160.017 0Z" fill="#15B1C3"/>
<path d="M236.073 239.748V256.799H201.502L20.0011 69.7025H71.1134L236.073 239.748Z" fill="#EBEBEB"/>
</g>
<defs>
<clipPath id="clip0_1_2">
<rect width="256" height="256" fill="white"/>
</clipPath>
</defs>
</svg>
